PathFileType	4	(X/Y/Z)	C:\Users\Basilio\Documents\Thesis Gigler\squatting_fais\c3dfiles\039\SJ_pre1\markers_experimental.trc
DataRate	CameraRate	NumFrames	NumMarkers	Units	OrigDataRate	OrigDataStartFrame	OrigNumFrames
200.000000	200.000000	4	61	mm	200.000000	232	1858
Frame#	Time	FHD			LBHD			RBHD			C7			T10			CLAV			LSHO			LUUPA			LMUPA			LDUPA			LLEP			LMEP			LRAD			LUL			LRFIN			RSHO			RUPA1			RMUPA			RDUPA			RLEP			RMEP			RRAD			RUL			RUFIN			LASI			RASI			USACR			LSACR			RSACR			LTHI1			LTHI2			LTHI3			LTHI4			LLFC			LMFC			LTIB1			LTIB2			LTIB3			LTIB4			LLMAL			LMMAL			LHEE			LMT1			LMT2			LMT5			RTHI			RTHI2			RTHI3			RTHI4			RLFC			RMFC			RTIB1			RTIB2			RTIB3			RTIB4			RLMAL			RMMAL			RHEE			RMT1			RMT2			RMT5			
		X1	Y1	Z1	X2	Y2	Z2	X3	Y3	Z3	X4	Y4	Z4	X5	Y5	Z5	X6	Y6	Z6	X7	Y7	Z7	X8	Y8	Z8	X9	Y9	Z9	X10	Y10	Z10	X11	Y11	Z11	X12	Y12	Z12	X13	Y13	Z13	X14	Y14	Z14	X15	Y15	Z15	X16	Y16	Z16	X17	Y17	Z17	X18	Y18	Z18	X19	Y19	Z19	X20	Y20	Z20	X21	Y21	Z21	X22	Y22	Z22	X23	Y23	Z23	X24	Y24	Z24	X25	Y25	Z25	X26	Y26	Z26	X27	Y27	Z27	X28	Y28	Z28	X29	Y29	Z29	X30	Y30	Z30	X31	Y31	Z31	X32	Y32	Z32	X33	Y33	Z33	X34	Y34	Z34	X35	Y35	Z35	X36	Y36	Z36	X37	Y37	Z37	X38	Y38	Z38	X39	Y39	Z39	X40	Y40	Z40	X41	Y41	Z41	X42	Y42	Z42	X43	Y43	Z43	X44	Y44	Z44	X45	Y45	Z45	X46	Y46	Z46	X47	Y47	Z47	X48	Y48	Z48	X49	Y49	Z49	X50	Y50	Z50	X51	Y51	Z51	X52	Y52	Z52	X53	Y53	Z53	X54	Y54	Z54	X55	Y55	Z55	X56	Y56	Z56	X57	Y57	Z57	X58	Y58	Z58	X59	Y59	Z59	X60	Y60	Z60	X61	Y61	Z61	

233	1.16	-208.8732910156251	1767.540649414063	-824.064880371094	-353.4226379394532	1716.059936523438	-953.2678222656252	-336.6124267578126	1727.275268554688	-813.1696777343752	-383.5877990722657	1570.300903320313	-895.3265380859377	-397.0348510742189	1251.696533203125	-905.6587524414065	-245.6717529296876	1491.874389648438	-892.2818603515627	-295.4498901367188	1549.2314453125	-1082.222900390625	-398.7209777832032	1423.537353515625	-1243.133056640625	-364.7090759277344	1386.8603515625	-1248.775512695313	-407.9361572265626	1370.12060546875	-1287.937133789063	-410.1414794921876	1304.59912109375	-1318.119384765625	-485.3807983398439	1291.054809570313	-1271.126098632813	-381.9817504882813	1084.621948242188	-1126.214599609375	-344.4532775878907	1057.303833007813	-1185.921997070313	-323.7284240722657	1086.841552734375	-1086.006469726563	-291.0413818359376	1533.59521484375	-699.7543945312501	-416.5616149902345	1417.927612304688	-555.4994506835939	-386.4143981933595	1380.461303710938	-541.1947631835939	-436.6937255859376	1367.4013671875	-511.2330017089845	-433.8146057128907	1302.283325195313	-480.181365966797	-507.6133422851564	1288.901977539063	-529.8676147460939	-372.5867919921876	1107.105224609375	-696.0862426757814	-360.9187011718751	1057.941040039063	-638.9113769531251	-309.2010192871094	1088.59716796875	-732.9893798828126	-228.3238372802735	1060.55810546875	-1015.661437988281	-234.4309082031251	1040.644897460938	-798.7454833984377	-411.5398864746095	1124.855224609375	-904.421569824219	-417.9250488281251	1094.459838867188	-933.7658691406252	-418.467010498047	1092.044189453125	-875.0471801757815	-307.6357116699219	791.5357055664065	-1107.65234375	-275.0012512207032	713.5729980468751	-1112.959716796875	-227.0427856445313	716.6822509765626	-1104.708251953125	-302.1761779785157	660.2541503906251	-1100.590942382813	-302.3178100585938	537.5802001953126	-1103.844970703125	-265.6438598632813	505.6726379394532	-993.5585937500002	-250.6019287109376	386.7053527832032	-1094.461669921875	-323.7045898437501	351.3757629394532	-1132.771606445313	-282.3128967285157	344.7730712890626	-1119.689331054688	-281.1644287109376	262.1944274902344	-1086.171508789063	-354.6158142089844	99.23142242431643	-1122.023559570313	-327.7509765625001	94.99074554443361	-1039.009887695313	-417.0071716308595	41.42119216918946	-1080.700927734375	-181.9498596191407	56.24314498901369	-1091.390747070313	-193.0224304199219	54.71286392211915	-1133.0751953125	-242.6573791503907	31.7170524597168	-1179.660278320313	-292.9164428710938	786.7725219726565	-708.4845581054689	-249.6092987060547	736.5212402343751	-699.7976684570314	-217.8318481445313	741.9864501953126	-705.4868774414064	-270.2951354980469	653.1741333007814	-702.5020141601564	-291.8173828125001	514.0059204101564	-715.5838623046876	-246.0281829833985	492.0923156738282	-823.3748779296877	-263.8308105468751	303.1352539062501	-701.9614257812501	-353.3009033203126	243.4871368408204	-692.0646362304689	-307.7968750000001	232.7144012451172	-687.1579589843751	-289.8759155273438	179.6741180419922	-710.5992431640626	-362.1692199707032	92.5856399536133	-682.1000976562501	-326.0869750976563	98.45173645019534	-765.3532104492189	-424.4857788085939	40.62624740600587	-730.1453857421876	-190.6237945556641	51.40288162231447	-710.3425292968751	-200.3719787597657	56.81861114501955	-665.5438232421876	-256.6174926757813	30.52698135375977	-617.5013427734376	
234	1.165	-208.8715972900391	1767.533447265625	-824.067810058594	-353.3986511230469	1716.011840820313	-953.2273559570315	-336.6116027832032	1727.260864257813	-813.1172485351565	-383.6040039062501	1570.326293945313	-895.3353271484377	-397.0499572753907	1251.679321289063	-905.6276855468752	-245.7033691406251	1491.884643554688	-892.3183593750002	-295.5267944335938	1549.223876953125	-1082.176391601563	-398.7693786621095	1423.515502929688	-1243.119018554688	-364.7742919921876	1386.875732421875	-1248.75927734375	-408.0057067871095	1370.12646484375	-1287.934814453125	-410.2088623046876	1304.613647460938	-1318.114501953125	-485.3818664550782	1291.048583984375	-1271.109741210938	-383.4149169921876	1084.838134765625	-1126.577758789063	-344.4302062988282	1057.317016601563	-1185.958984375	-323.8091735839844	1086.8876953125	-1086.016235351563	-291.1433105468751	1533.610107421875	-699.7567138671876	-416.7031250000001	1417.982421875	-555.4624633789064	-386.5037231445314	1380.551879882813	-541.1795654296876	-436.7847595214845	1367.451293945313	-511.1944580078126	-433.8960571289064	1302.322875976563	-480.1557922363282	-507.7106018066407	1288.972045898438	-529.9230346679689	-372.5016479492188	1107.177001953125	-696.0104370117189	-360.8425598144532	1058.033447265625	-638.8569335937501	-309.2177734375001	1088.653930664063	-733.0081176757814	-229.8486328125001	1060.02099609375	-1014.895263671875	-234.4784545898438	1040.640014648438	-798.7229614257815	-411.6099548339845	1124.8955078125	-904.413513183594	-418.0141601562501	1094.472412109375	-933.767272949219	-418.523651123047	1092.066650390625	-875.0740966796877	-307.7692260742188	791.1636962890627	-1107.67529296875	-275.0732421875001	713.5512695312501	-1112.965576171875	-227.0980834960938	716.6744384765626	-1104.731323242188	-302.2201538085938	660.2257080078126	-1100.60009765625	-302.3124084472657	537.5632934570314	-1103.855834960938	-265.6396179199219	505.6589965820314	-993.535827636719	-250.653793334961	386.6799621582032	-1094.51123046875	-323.5154418945313	351.8175048828126	-1132.60595703125	-282.3532409667969	344.7804870605469	-1119.713989257813	-281.2339782714844	262.1933593750001	-1086.147705078125	-354.5437622070313	99.52713012695315	-1121.960327148438	-327.7017822265626	94.98403167724611	-1039.03369140625	-417.0057678222657	41.40260314941407	-1080.702514648438	-181.886459350586	56.2081642150879	-1091.374877929688	-193.0896148681641	54.76254653930665	-1133.112182617188	-242.6434020996094	31.69259834289551	-1179.66552734375	-292.9767150878907	786.7761230468752	-708.4537353515626	-249.6726837158204	736.5162963867189	-699.8271484375001	-217.8806152343751	741.9921875000001	-705.4830932617189	-270.2491760253907	653.0695800781251	-702.4616699218751	-291.7556152343751	513.8331909179689	-715.5145263671876	-246.0450134277344	492.078826904297	-823.3825683593752	-263.8267822265626	303.1221313476563	-701.9988403320314	-353.2939758300782	243.4621887207032	-692.0610351562501	-307.8157653808594	232.7100677490235	-687.1548461914064	-289.8789062500001	179.6826477050782	-710.5712890625001	-362.1208496093751	92.55271911621095	-682.0717773437501	-326.0334472656251	98.43962097167972	-765.3572387695314	-424.4844970703126	40.63327407836915	-730.1566162109376	-190.5591430664063	51.29190063476564	-710.3333129882814	-200.3477172851563	56.81716918945314	-665.5495605468751	-256.6223144531251	30.56999015808106	-617.4806518554689	
235	1.17	-208.9091491699219	1767.55029296875	-824.0927734375002	-353.5040893554688	1716.007690429688	-953.2349853515627	-336.6160278320313	1727.275146484375	-813.089538574219	-383.6954040527344	1570.292114257813	-895.309997558594	-397.0775146484376	1251.697509765625	-905.6052856445315	-245.7263793945313	1491.825439453125	-892.228942871094	-295.5646972656251	1549.202758789063	-1082.181762695313	-398.8003540039064	1423.537719726563	-1243.141845703125	-364.8236389160157	1386.902587890625	-1248.755004882813	-408.0897521972657	1370.168334960938	-1287.92333984375	-410.285858154297	1304.61474609375	-1318.136596679688	-485.4081420898439	1291.015869140625	-1271.120239257813	-382.0824584960938	1084.64404296875	-1126.208862304688	-344.5218200683594	1057.327392578125	-1185.9619140625	-323.9086303710938	1086.858032226563	-1086.007080078125	-291.2343750000001	1533.69921875	-699.7603149414064	-416.7894592285157	1417.960571289063	-555.5119018554689	-386.6077575683595	1380.642211914063	-541.1748046875001	-436.8497009277345	1367.4462890625	-511.176971435547	-433.9315490722657	1302.352661132813	-480.1258239746095	-507.7256164550782	1288.923095703125	-529.8392944335939	-372.6076049804688	1107.275390625	-696.0196533203126	-360.8510437011719	1058.100830078125	-638.8720703125001	-309.2563476562501	1088.662475585938	-733.0070800781251	-228.4187927246094	1060.598999023438	-1015.637512207031	-234.5099487304688	1040.627563476563	-798.802917480469	-411.678192138672	1124.936767578125	-904.4184570312502	-418.0584411621095	1094.4658203125	-933.7353515625002	-418.511444091797	1092.076782226563	-874.9942016601565	-307.7503967285157	791.5489501953127	-1107.646362304688	-275.1215515136719	713.5654296875001	-1112.9541015625	-227.1344757080079	716.6733398437501	-1104.74169921875	-302.2433471679688	660.2073364257814	-1100.58447265625	-302.4158630371094	537.6028442382814	-1103.83203125	-265.7035522460938	505.6765441894532	-993.5647583007815	-250.6712799072266	386.6903076171876	-1094.446411132813	-323.4360656738282	351.7523498535157	-1132.611938476563	-282.3280944824219	344.8060913085938	-1119.7080078125	-281.2313537597657	262.1872253417969	-1086.176391601563	-354.5706481933594	99.22966003417972	-1122.034057617188	-327.7234802246094	94.99326324462892	-1039.033813476563	-417.0115356445314	41.42987442016602	-1080.692260742188	-181.9087524414063	56.25970840454103	-1091.4033203125	-193.2149505615235	54.53425216674806	-1132.801513671875	-242.4871520996094	31.68054389953614	-1179.780151367188	-293.0458374023438	786.778503417969	-708.4324951171876	-249.7179565429688	736.5758666992189	-699.8189697265626	-217.9006958007813	741.9718627929689	-705.5155029296876	-270.2938232421876	653.0789184570314	-702.4522094726564	-291.7686157226563	513.8386230468751	-715.5497436523439	-246.0726623535157	492.086151123047	-823.3587646484377	-263.8486633300782	303.1318664550782	-701.9924926757814	-353.2847290039063	243.4709777832032	-692.0486450195314	-307.7898864746094	232.700668334961	-687.1614990234376	-289.8706359863282	179.6622772216797	-710.5654296875001	-362.1560363769532	92.57390594482423	-682.0693969726564	-326.0400085449219	98.44458770751956	-765.3602905273439	-424.488739013672	40.6208839416504	-730.1538696289064	-190.5317687988282	51.29944610595705	-710.3576049804689	-200.3308868408204	56.79563522338869	-665.5638427734376	-256.6378479003907	30.55099105834962	-617.4527587890626	
236	1.175	-208.8852081298829	1767.558227539063	-824.0335693359377	-353.3951721191407	1716.016723632813	-953.1456298828127	-336.6576232910157	1727.273559570313	-813.0786132812502	-383.6808166503907	1570.2978515625	-895.3283691406252	-397.275360107422	1251.673950195313	-905.609558105469	-245.7918548583985	1491.865600585938	-892.2769775390627	-295.5915222167969	1549.21630859375	-1082.189575195313	-398.8876342773439	1423.511474609375	-1243.131103515625	-364.9318847656251	1386.9052734375	-1248.740966796875	-408.0819702148439	1370.169677734375	-1287.92822265625	-410.3363037109376	1304.626586914063	-1318.149169921875	-485.4860839843751	1291.084106445313	-1271.125244140625	-383.5245056152344	1084.880126953125	-1126.561401367188	-344.6182861328126	1057.331420898438	-1185.929931640625	-323.9536437988282	1086.914916992188	-1086.005737304688	-291.3186340332032	1533.586303710938	-699.7122192382814	-416.8712463378907	1418.071411132813	-555.4489746093751	-386.6950073242189	1380.692749023438	-541.1466064453126	-436.976776123047	1367.497436523438	-511.1729431152345	-434.0501098632814	1302.379028320313	-480.053436279297	-507.781951904297	1288.946655273438	-529.8453369140626	-372.4203186035157	1107.29833984375	-695.9303588867189	-360.8258666992188	1058.14599609375	-638.8405761718751	-309.2651367187501	1088.718505859375	-733.0014038085939	-229.3750000000001	1060.275268554688	-1015.269104003906	-234.5529937744141	1040.585815429688	-798.758239746094	-411.7693176269532	1124.967529296875	-904.3846435546877	-418.0807495117189	1094.4697265625	-933.7158203125002	-418.5410156250001	1092.114135742188	-875.031677246094	-307.8807678222657	791.1765747070315	-1107.661499023438	-275.1539306640626	713.5676879882814	-1112.9775390625	-227.2373962402344	716.6740112304689	-1104.7080078125	-302.3130187988282	660.2470092773439	-1100.59765625	-302.4391784667969	537.5864257812501	-1103.841552734375	-265.7391357421876	505.6936645507814	-993.5291137695315	-250.645248413086	386.6724548339845	-1094.472534179688	-323.4973449707032	351.7943420410157	-1132.608764648438	-282.4093933105469	344.8040466308594	-1119.706298828125	-281.2111816406251	262.2124633789063	-1086.158203125	-354.5751342773438	99.22552490234378	-1122.033447265625	-327.7361755371094	95.00003051757814	-1039.024658203125	-417.0042114257814	41.41747665405274	-1080.707763671875	-181.9310760498047	56.26131820678712	-1091.385620117188	-193.1094207763672	54.71835327148439	-1133.064331054688	-242.6723175048829	31.69161796569825	-1179.667846679688	-293.0960998535157	786.7733154296877	-708.4484863281251	-249.7893066406251	736.5519409179689	-699.8108520507814	-217.9259948730469	741.9893188476564	-705.5477905273439	-270.3369445800782	653.0840454101564	-702.4216308593751	-291.8780517578126	513.9916992187501	-715.5172729492189	-246.0995635986329	492.0794982910157	-823.3965454101565	-263.8482666015626	303.1283569335938	-701.9918823242189	-353.3002929687501	243.4722747802735	-692.0516357421876	-307.8433532714844	232.8020935058594	-687.1348876953126	-289.8739013671876	179.7080993652344	-710.6058349609376	-362.1707153320313	92.57525634765626	-682.0770874023439	-326.0929870605469	98.44734954833987	-765.3634033203126	-424.4809570312501	40.61797714233399	-730.1850585937501	-190.4926147460938	51.29819488525392	-710.3421020507814	-200.3402709960938	56.82872772216798	-665.5341186523439	-256.6294555664063	30.5410442352295	-617.4835815429689	
